<?xml version="1.0" encoding="UTF-8"?>
<svg width="32px" height="32px" viewBox="0 0 32 32" version="1.1" xmlns="http://www.w3.org/2000/svg" xmlns:xlink="http://www.w3.org/1999/xlink">
    <title>6B232FAE-0CD0-46E7-9BE3-D547AACA4573</title>
    <g id="Final" stroke="none" stroke-width="1" fill="none" fill-rule="evenodd">
        <g id="MSQ---Desktop" transform="translate(-1348.000000, -7864.000000)" fill="#152221">
            <path d="M1377.09091,7864 L1350.90909,7864 C1349.30182,7864 1348,7865.30182 1348,7866.90909 L1348,7893.09091 C1348,7894.69818 1349.30182,7896 1350.90909,7896 L1365.45455,7896 L1365.45455,7882.90909 L1361.09091,7882.90909 L1361.09091,7878.54545 L1365.45455,7878.54545 L1365.45455,7876.20218 C1365.45455,7871.76582 1367.616,7869.81818 1371.30327,7869.81818 C1373.06909,7869.81818 1374.00291,7869.94909 1374.44509,7870.00873 L1374.44509,7874.18182 L1371.93018,7874.18182 C1370.36509,7874.18182 1369.81818,7875.008 1369.81818,7876.68073 L1369.81818,7878.54545 L1374.40582,7878.54545 L1373.78327,7882.90909 L1369.81818,7882.90909 L1369.81818,7896 L1377.09091,7896 C1378.69818,7896 1380,7894.69818 1380,7893.09091 L1380,7866.90909 C1380,7865.30182 1378.69673,7864 1377.09091,7864 Z" id="facebook_logo"></path>
        </g>
    </g>
</svg>