<?xml version="1.0" encoding="UTF-8"?>
<svg width="300px" height="99px" viewBox="0 0 300 99" version="1.1" xmlns="http://www.w3.org/2000/svg" xmlns:xlink="http://www.w3.org/1999/xlink">
    <title>0B80F26C-352D-42EC-8736-F2ABC313BB6F</title>
    <g id="Final" stroke="none" stroke-width="1" fill="none" fill-rule="evenodd">
        <g id="MSQ---Desktop" transform="translate(-60.000000, -40.000000)" fill="#FFFFFF" fill-rule="nonzero">
            <path d="M154.461248,94 L161.123596,94 L157.832956,41.125 L149.12916,41.125 L139.725227,66.7014698 L139.337196,67.8047132 C137.16343,74.0119185 135.417139,79.4690137 134.157303,84.5083862 L133.921468,84.5083862 C132.59121,79.0177052 130.785596,73.2098996 128.593064,66.7014698 L119.576049,41.125 L110.875938,41.125 L107.191011,94 L113.698591,94 L115.109918,71.3292768 L115.198125,69.8093131 C115.627007,62.2883393 115.982018,54.1217247 116.126958,47.9505544 L116.28541,47.9505544 C117.77412,54.226672 119.889268,61.0522264 122.398703,68.5046551 L130.944047,93.6865629 L136.117684,93.6865629 L145.447918,68.0326557 C148.11212,60.7387893 150.308336,54.1492346 152.110265,47.9505544 L152.346101,47.9505544 C152.265032,54.5401091 152.736703,63.4048487 153.127305,70.7798399 L154.461248,94 Z M190.608976,56.875 C180.761899,56.875 173.483146,64.5692836 173.483146,76.3302822 C173.483146,87.5414255 180.32466,95.125 190.061507,95.125 C199.475019,95.125 207.191011,88.3643632 207.191011,75.6143632 C207.191011,64.6246382 200.676509,56.875 190.608976,56.875 Z M189.80285,60.25 C197.739086,60.25 201.573034,67.9265909 201.573034,75.2755 C201.573034,83.6626818 197.301655,90.625 189.747712,90.625 C182.248906,90.625 177.977528,83.5522273 177.977528,75.6584091 C177.977528,67.5436818 181.918077,60.25 189.80285,60.25 Z M217.303371,92.7597826 C219.28945,94.0791304 223.198734,95.125 226.778854,95.125 C235.536833,95.125 239.775281,90.1728261 239.775281,84.4482609 C239.775281,79.0553435 236.647017,76.0349073 230.49097,73.6226956 L229.999584,73.4312423 C225.091627,71.4999137 222.921348,69.7921913 222.921348,66.395 C222.921348,63.8634783 224.85195,60.8367391 229.918856,60.8367391 C233.277067,60.8367391 235.755043,61.9380435 236.968141,62.5995652 L238.288496,58.6895652 C236.638977,57.7545652 233.883617,56.875 230.081588,56.875 C222.86957,56.875 218.076351,61.1693478 218.076351,66.9456522 C218.076351,72.175 221.822902,75.3126087 227.880998,77.4597826 L228.178057,77.5753867 C232.970929,79.4650464 234.874807,81.4354174 234.874807,84.8326087 C234.874807,88.5763043 232.01219,91.1632609 227.108018,91.1632609 C223.805283,91.1632609 220.665281,90.0619565 218.516469,88.738913 L217.303371,92.7597826 Z M271.021376,82.322843 L275.036836,94 L280.224719,94 L267.395476,56.875 L261.540847,56.875 L248.764045,94 L253.787115,94 L257.690201,82.322843 L271.021376,82.322843 Z M258.876404,79.375 L262.530041,68.3027695 C263.251105,65.9769911 263.856947,63.6473999 264.410754,61.375 L264.522258,61.375 L264.739575,62.2451121 C265.225215,64.1868358 265.737982,66.1883502 266.458723,68.3599608 L270.11236,79.375 L258.876404,79.375 Z M290.337079,56.875 L290.337079,94 L294.831461,94 L294.831461,56.875 L290.337079,56.875 Z M287.585809,54.625 C289.248115,54.625 290.337079,53.3421709 290.337079,51.7825798 C290.337079,50.2229887 289.190396,49 287.585809,49 C285.981222,49 284.719101,50.2790891 284.719101,51.7825798 C284.719101,53.3421709 285.865784,54.625 287.585809,54.625 Z M297.640449,54.625 C299.360474,54.625 300.449438,53.3421709 300.449438,51.7825798 C300.449438,50.2229887 299.302755,49 297.698168,49 C296.035863,49 294.831461,50.2790891 294.831461,51.7825798 C294.831461,53.3421709 295.978144,54.625 297.640449,54.625 Z M334.23835,89.5667391 C332.319027,90.5017391 329.353472,91.1078261 326.446859,91.1078261 C317.450728,91.1078261 312.237981,85.2723913 312.237981,76.1921739 C312.237981,66.4504348 317.999632,60.8921739 326.667895,60.8921739 C329.740284,60.8921739 332.319027,61.5536957 334.127832,62.4332609 L335.280899,58.5269565 L335.186693,58.4785812 C333.876248,57.8182781 330.999652,56.875 326.502118,56.875 C315.03776,56.875 307.191011,64.7467391 307.191011,76.3584783 C307.191011,88.5208696 315.03776,95.125 325.459569,95.125 C329.957635,95.125 333.46841,94.2454348 335.22564,93.3621739 L334.23835,89.5667391 Z M103.820225,131.981928 C105.011723,132.761295 107.356284,133.375 109.504824,133.375 C114.758946,133.375 117.303371,130.460843 117.303371,127.09488 C117.303371,123.92564 115.426911,122.148823 111.740943,120.733284 L111.618772,120.686747 C108.547782,119.519578 107.191011,118.514307 107.191011,116.47741 C107.191011,114.986446 108.347917,113.205572 111.388159,113.205572 C113.406019,113.205572 114.889626,113.853163 115.619899,114.244729 L116.411669,111.944277 C115.420035,111.394578 113.767312,110.875 111.488091,110.875 C107.160263,110.875 104.28145,113.401355 104.28145,116.801205 C104.28145,119.877259 106.529922,121.722139 110.165913,122.983434 L110.393549,123.070683 C113.231882,124.176955 114.363061,125.332445 114.363061,127.320783 C114.363061,129.523343 112.644998,131.044428 109.704688,131.044428 C107.72142,131.044428 105.838084,130.396837 104.546654,129.621235 L103.820225,131.981928 Z M131.910112,131.906114 C131.716471,130.878074 131.653165,129.603884 131.653165,128.297116 L131.653165,122.660997 L131.65176,122.479738 C131.605556,119.517612 130.404027,116.5 125.76199,116.5 C123.806954,116.5 121.952463,117.028499 120.671449,117.839347 L121.311956,119.642036 C122.399328,118.957883 123.903775,118.5235 125.344916,118.5235 C128.513936,118.5235 128.867704,120.764192 128.867704,122.009423 L128.867704,122.320731 C122.879709,122.288152 119.550562,124.279074 119.550562,127.92065 C119.550562,130.099805 121.151829,132.25 124.287334,132.25 C126.499318,132.25 128.163891,131.189382 129.027831,130.009308 L129.124652,130.009308 L129.348084,131.906114 L131.910112,131.906114 Z M128.539326,126.827345 C128.539326,127.088065 128.474282,127.379258 128.374804,127.639978 C127.915673,128.835226 126.599498,130 124.525756,130 C123.045059,130 121.797753,129.214455 121.797753,127.551943 C121.797753,124.816078 125.3828,124.321726 128.539326,124.379288 L128.539326,126.827345 Z M134.40155,116.5 L139.392686,124.210346 L134.157303,132.25 L137.109507,132.25 L139.240474,128.703317 C139.785605,127.75703 140.305958,126.912942 140.790912,125.97044 L140.851089,125.97044 L141.160072,126.529006 C141.569105,127.265566 141.971794,127.97354 142.433385,128.703317 L144.596211,132.25 L147.640449,132.25 L142.465243,124.111932 L147.488237,116.5 L144.596211,116.5 L142.52542,119.849856 L142.260591,120.309932 C141.862949,120.997913 141.463798,121.6829 141.067018,122.454037 L140.974982,122.454037 L140.65268,121.876722 C140.278994,121.211014 139.907926,120.566931 139.481181,119.883922 L137.382073,116.5 L134.40155,116.5 Z M157.296961,116.5 C153.159522,116.5 149.88764,119.457424 149.88764,124.499885 C149.88764,129.259998 153.005086,132.25 157.049146,132.25 C160.662222,132.25 164.494382,129.821076 164.494382,124.250115 C164.494382,119.642036 161.588836,116.5 157.296961,116.5 Z M156.68966,118.75 C159.86844,118.75 161.123596,122.193913 161.123596,124.906716 C161.123596,128.512243 159.196416,131.125 156.629213,131.125 C153.998009,131.125 152.134831,128.477612 152.134831,124.972132 C152.134831,121.928405 153.51088,118.75 156.68966,118.75 Z M167.993846,139 L170.743869,139 L170.743869,130.46148 L170.80637,130.46148 C171.721819,132.021148 173.493893,132.931269 175.515969,132.931269 C179.11894,132.931269 182.47191,130.136707 182.47191,124.48716 C182.47191,119.713746 179.688798,116.5 175.990237,116.5 C173.493893,116.5 171.692407,117.636707 170.552691,119.55136 L170.490191,119.55136 L170.36519,116.858761 L167.865169,116.858761 L167.915086,118.097343 C167.956221,119.192212 167.990104,120.383568 167.993556,121.756621 L167.993846,139 Z M170.11236,123.196513 C170.11236,122.859386 170.188693,122.501631 170.274741,122.184864 L170.30078,122.091125 C170.84018,120.069334 172.620938,118.75 174.527309,118.75 C177.47923,118.75 179.101124,121.292393 179.101124,124.266244 C179.101124,127.671553 177.386867,130 174.431252,130 C172.428823,130 170.747817,128.712758 170.237973,126.844295 C170.175166,126.505547 170.11236,126.138273 170.11236,125.738906 L170.11236,123.196513 Z M185.842697,132.25 L188.720522,132.25 L188.720522,122.9957 C188.720522,122.457617 188.754782,122.04484 188.918468,121.665233 C189.439979,120.146806 190.913151,118.878993 192.778409,118.878993 C195.466812,118.878993 196.423396,120.923492 196.443873,123.361144 L196.44421,132.25 L199.325843,132.25 L199.325843,123.124693 C199.325843,117.83231 195.9227,116.564496 193.794784,116.564496 C192.755276,116.564496 191.779119,116.857537 190.94753,117.302735 L190.848438,117.35688 C189.965296,117.83231 189.24584,118.52887 188.785235,119.321253 L188.720522,119.321253 L188.720522,109.75 L185.842697,109.75 L185.842697,132.25 Z M210.10595,116.5 C205.968511,116.5 202.696629,119.457424 202.696629,124.499885 C202.696629,129.259998 205.814075,132.25 209.858135,132.25 C213.471211,132.25 217.303371,129.821076 217.303371,124.250115 C217.303371,119.642036 214.397825,116.5 210.10595,116.5 Z M209.498649,118.75 C212.677429,118.75 213.932584,122.193913 213.932584,124.906716 C213.932584,128.512243 212.005405,131.125 209.438202,131.125 C206.806998,131.125 204.94382,128.477612 204.94382,124.972132 C204.94382,121.928405 206.319869,118.75 209.498649,118.75 Z M220.806086,132.25 L223.655753,132.25 L223.655753,122.990954 C223.655753,122.513569 223.719833,122.036184 223.851762,121.684622 C224.338015,120.126645 225.796773,118.824013 227.673934,118.824013 C230.336033,118.824013 231.283256,120.847954 231.303533,123.291418 L231.303867,132.25 L234.157303,132.25 L234.157303,123.053865 C234.157303,117.773026 230.787459,116.5 228.616284,116.5 C226.022937,116.5 224.206086,117.932155 223.429589,119.393914 L223.365509,119.393914 L223.203425,116.851563 L220.674157,116.851563 C220.767495,118.060444 220.80271,119.302892 220.805852,120.793089 L220.806086,132.25 Z M240.17991,124.890085 L250.915741,124.890085 L250.950197,124.601547 C250.980124,124.34012 251.011236,124.006503 251.011236,123.609627 C251.011236,120.834696 249.685326,116.5 244.693881,116.5 C240.242349,116.5 237.52809,120.08746 237.52809,124.639797 C237.52809,129.192135 240.337844,132.25 245.042804,132.25 C247.474252,132.25 249.149085,131.749424 250.126072,131.314141 L249.65227,129.348111 C248.612845,129.787022 247.411813,130.127994 245.421111,130.127994 C242.644413,130.127994 240.242349,128.600875 240.17991,124.890085 Z M239.775281,123.25 C239.988885,121.331367 241.181506,118.75 243.904955,118.75 C246.934569,118.75 247.671502,121.488812 247.639462,123.25 L239.775281,123.25 Z M279.410275,135.625 L280.224719,133.322931 L279.803923,133.249686 C278.017192,132.931952 275.827986,132.460793 273.807661,131.964453 L273.807661,131.835948 C277.455611,130.605975 280.06183,127.103304 280.06183,121.64002 C280.06183,115.357977 276.186594,110.875 270.224109,110.875 C264.295717,110.875 260,115.262517 260,122.084279 C260,128.931742 264.458605,132.658378 269.671045,132.849299 C270.095313,132.849299 270.549886,133.007176 271.008248,133.165053 C273.546281,134.016856 276.447973,134.868658 279.410275,135.625 Z M270.065203,131.125 C265.854772,131.125 263.391544,127.017346 263.370941,122.424922 L263.371065,122.285613 C263.34196,117.542804 265.593955,113.125 270.192537,113.125 C274.663785,113.125 276.853933,117.641061 276.853933,122.028632 C276.853933,127.032201 274.412755,131.125 270.065203,131.125 Z M295.82563,117.625 L292.943998,117.625 L292.943998,127.07278 C292.943998,127.58347 292.845025,128.090461 292.681339,128.504934 C292.159828,129.744655 290.816082,131.050987 288.886111,131.050987 C286.294999,131.050987 285.369448,129.12028 285.350048,126.244412 L285.349736,117.625 L282.47191,117.625 L282.47191,126.628701 C282.47191,132.035362 285.448709,133.375 287.938256,133.375 C290.751369,133.375 292.422487,131.750411 293.172397,130.510691 L293.240916,130.510691 L293.404602,133.023437 L295.955056,133.023437 C295.856083,131.813322 295.82563,130.414474 295.82563,128.823191 L295.82563,117.625 Z M311.685393,131.906114 C311.491752,130.878074 311.428446,129.603884 311.428446,128.297116 L311.428446,122.660997 L311.427041,122.479738 C311.380837,119.517612 310.179308,116.5 305.537271,116.5 C303.582235,116.5 301.727744,117.028499 300.44673,117.839347 L301.087237,119.642036 C302.174609,118.957883 303.679056,118.5235 305.120197,118.5235 C308.289217,118.5235 308.642985,120.764192 308.642985,122.009423 L308.642985,122.320731 C302.654989,122.288152 299.325843,124.279074 299.325843,127.92065 C299.325843,130.099805 300.92711,132.25 304.062615,132.25 C306.274599,132.25 307.939172,131.189382 308.803112,130.009308 L308.899933,130.009308 L309.123365,131.906114 L311.685393,131.906114 Z M308.314607,126.827345 C308.314607,127.088065 308.249563,127.379258 308.150085,127.639978 C307.690954,128.835226 306.374778,130 304.301037,130 C302.82034,130 301.573034,129.214455 301.573034,127.551943 C301.573034,124.816078 305.158081,124.321726 308.314607,124.379288 L308.314607,126.827345 Z M315.187893,132.25 L318.002796,132.25 L318.002796,124.041941 C318.002796,123.564556 318.066771,123.116776 318.130746,122.735609 C318.518359,120.637336 319.944627,119.14227 321.950433,119.14227 C322.338046,119.14227 322.627816,119.171875 322.921348,119.234786 L322.921348,116.596217 C322.661685,116.533306 322.435891,116.5 322.112252,116.5 C320.200527,116.5 318.488253,117.806332 317.773238,119.871299 L317.645288,119.871299 L317.547444,116.851563 L315.05618,116.851563 C315.154024,118.280016 315.187893,119.841694 315.187893,121.655016 L315.187893,132.25 Z M327.518662,113.861634 L327.518662,117.574568 L325.168539,117.574568 L325.168539,119.717504 L327.518662,119.717504 L327.518662,128.162755 C327.518662,129.985739 327.799219,131.358557 328.582594,132.191921 C329.242085,132.958318 330.273225,133.375 331.559416,133.375 C332.623347,133.375 333.468663,133.215024 334.000629,132.991801 L333.876746,130.878629 C333.530604,130.975358 332.998638,131.072088 332.280849,131.072088 C330.766904,131.072088 330.22789,130.018908 330.211663,128.154035 L330.211283,119.717504 L334.157303,119.717504 L334.157303,117.574568 L330.211283,117.574568 L330.211283,113.125 L327.518662,113.861634 Z M339.056314,124.890085 L349.792146,124.890085 L349.826602,124.601547 C349.856529,124.34012 349.88764,124.006503 349.88764,123.609627 C349.88764,120.834696 348.56173,116.5 343.570285,116.5 C339.118753,116.5 336.404494,120.08746 336.404494,124.639797 C336.404494,129.192135 339.214248,132.25 343.919209,132.25 C346.350656,132.25 348.02549,131.749424 349.002476,131.314141 L348.528674,129.348111 C347.489249,129.787022 346.288217,130.127994 344.297516,130.127994 C341.520818,130.127994 339.118753,128.600875 339.056314,124.890085 Z M346.515866,123.25 L338.651685,123.25 L338.667194,123.122571 C338.918452,121.219147 340.117767,118.75 342.781359,118.75 C345.810973,118.75 346.547907,121.488812 346.515866,123.25 Z M353.361359,113.861634 L353.361359,117.574568 L351.011236,117.574568 L351.011236,119.717504 L353.361359,119.717504 L353.361359,128.162755 C353.361359,129.985739 353.641916,131.358557 354.42529,132.191921 C355.084782,132.958318 356.115921,133.375 357.402112,133.375 C358.466044,133.375 359.311359,133.215024 359.843325,132.991801 L359.719443,130.878629 C359.373301,130.975358 358.841335,131.072088 358.123545,131.072088 C356.609601,131.072088 356.070586,130.018908 356.054359,128.154035 L356.05398,119.717504 L360,119.717504 L360,117.574568 L356.05398,117.574568 L356.05398,113.125 L353.361359,113.861634 Z M69.5501006,64.75 C64.2755951,64.75 60,60.4690604 60,55.1879618 C60,49.9067098 64.2757483,45.625 69.5501006,45.625 C74.824606,45.625 79.1011236,49.9068632 79.1011236,55.1879618 C79.1011236,60.4689071 74.8247592,64.75 69.5501006,64.75 Z M68.9883183,63.625 C73.332203,63.625 76.8539326,59.847546 76.8539326,55.1879782 C76.8539326,50.5282044 73.3320109,46.75 68.9883183,46.75 C64.6448177,46.75 61.1235955,50.5279983 61.1235955,55.1879782 C61.1235955,59.847752 64.6446257,63.625 68.9883183,63.625 Z M69.5501006,100.75 C64.2757483,100.75 60,96.4682902 60,91.1870382 C60,85.9059396 64.2755951,81.625 69.5501006,81.625 C74.8247592,81.625 79.1011236,85.9060929 79.1011236,91.1870382 C79.1011236,96.4681368 74.824606,100.75 69.5501006,100.75 Z M68.9883183,99.625 C73.3320109,99.625 76.8539326,95.8467956 76.8539326,91.1870218 C76.8539326,86.527454 73.332203,82.75 68.9883183,82.75 C64.6446257,82.75 61.1235955,86.527248 61.1235955,91.1870218 C61.1235955,95.8470017 64.6448177,99.625 68.9883183,99.625 Z M77.4157303,78.25 C74.0028028,78.25 71.2359551,75.2280637 71.2359551,71.5004826 C71.2359551,67.7721039 74.0026494,64.75 77.4157303,64.75 C80.8288113,64.75 83.5955056,67.7721039 83.5955056,71.5004826 C83.5955056,75.2280637 80.8286578,78.25 77.4157303,78.25 Z M77.4157303,76 C80.2081099,76 82.4719101,73.7335776 82.4719101,70.9379634 C82.4719101,68.1415482 80.2082355,65.875 77.4157303,65.875 C74.6232252,65.875 72.3595506,68.1415482 72.3595506,70.9379634 C72.3595506,73.7335776 74.6233507,76 77.4157303,76 Z M69.5501006,130 C64.2755951,130 60,125.718854 60,120.4375 C60,115.156146 64.2755951,110.875 69.5501006,110.875 C74.8247592,110.875 79.1011236,115.1563 79.1011236,120.4375 C79.1011236,125.7187 74.8247592,130 69.5501006,130 Z M68.9883183,128.875 C73.332203,128.875 76.8539326,125.097332 76.8539326,120.4375 C76.8539326,115.777668 73.332203,112 68.9883183,112 C64.6446257,112 61.1235955,115.777462 61.1235955,120.4375 C61.1235955,125.097538 64.6446256,128.875 68.9883183,128.875 Z M93.7078652,134.5 L93.7078652,40 L91.4606742,40 L91.4606742,134.5 L93.7078652,134.5 Z" id="logo"></path>
        </g>
    </g>
</svg>