<?xml version="1.0" encoding="UTF-8"?>
<svg width="80px" height="80px" viewBox="0 0 80 80" version="1.1" xmlns="http://www.w3.org/2000/svg" xmlns:xlink="http://www.w3.org/1999/xlink">
    <title>C9EC1699-4FD0-430F-A268-261EE03ADE38</title>
    <g id="Final" stroke="none" stroke-width="1" fill="none" fill-rule="evenodd">
        <g id="MSQ---Desktop" transform="translate(-962.000000, -2496.000000)" fill="#FFC874">
            <g id="Group-12" transform="translate(207.000000, 2323.000000)">
                <g id="Rectangle-3" transform="translate(416.000000, 0.000000)">
                    <g id="Group-2" transform="translate(339.000000, 173.000000)">
                        <path d="M40,0 C62.09139,0 80,17.90861 80,40 C80,62.09139 62.09139,80 40,80 C17.90861,80 0,62.09139 0,40 C0,17.90861 17.90861,0 40,0 Z M30.9647487,30.8145138 C30.747524,30.8145138 30.5714286,30.9906092 30.5714286,31.2078339 L30.5714286,48.7921661 C30.5714286,48.8532271 30.5856452,48.9134496 30.6129525,48.9680642 C30.7100983,49.1623559 30.9463551,49.2411082 31.1406468,49.1439623 L48.724979,40.3517962 C48.8010972,40.3137371 48.862818,40.2520163 48.9008771,40.1758981 C48.998023,39.9816064 48.9192707,39.7453496 48.724979,39.6482038 L31.1406468,30.8560377 C31.0860322,30.8287304 31.0258097,30.8145138 30.9647487,30.8145138 Z" id="play_btn"></path>
                    </g>
                </g>
            </g>
        </g>
    </g>
</svg>